<?xml version="1.0" encoding="UTF-8"?><svg id="Layer_1" xmlns="http://www.w3.org/2000/svg" xmlns:xlink="http://www.w3.org/1999/xlink" viewBox="0 0 147.8177 129.6522"><defs><style>.cls-1{fill:#695a44;}.cls-2{fill:url(#linear-gradient);}.cls-3{fill:url(#Earthtone_19_Radial-3);}.cls-4{fill:url(#Earthtone_19_Radial-4);}.cls-5{fill:url(#Earthtone_19_Radial-5);}.cls-6{fill:url(#Earthtone_19_Radial-6);}.cls-7{fill:url(#Earthtone_19_Radial-7);}.cls-8{fill:url(#Earthtone_19_Radial-8);}.cls-9{fill:url(#Earthtone_19_Radial-9);}.cls-10{fill:url(#Earthtone_19_Radial-2);}.cls-11{fill:url(#Earthtone_19_Radial-12);}.cls-12{fill:url(#Earthtone_19_Radial-11);}.cls-13{fill:url(#Earthtone_19_Radial-10);}.cls-14{fill:url(#Earthtone_19_Radial);}.cls-15{fill:url(#Autumn_Crimson);}</style><linearGradient id="Autumn_Crimson" x1="87.4073" y1="51.0987" x2="147.8177" y2="51.0987" gradientUnits="userSpaceOnUse"><stop offset="0" stop-color="#ad6766"/><stop offset=".0138" stop-color="#ac6564"/><stop offset=".5" stop-color="#942e40"/><stop offset=".7404" stop-color="#7a3041"/><stop offset="1" stop-color="#633343"/></linearGradient><linearGradient id="linear-gradient" x1="87.4068" y1="93.45" x2="94.2576" y2="93.45" gradientUnits="userSpaceOnUse"><stop offset="0" stop-color="#867278"/><stop offset=".5" stop-color="#5c4a56"/><stop offset="1" stop-color="#433545"/></linearGradient><radialGradient id="Earthtone_19_Radial" cx="86.658" cy="106.1513" fx="86.658" fy="106.1513" r="3.4487" gradientUnits="userSpaceOnUse"><stop offset="0" stop-color="#b27867"/><stop offset=".5" stop-color="#8d4130"/><stop offset="1" stop-color="#7a1e15"/></radialGradient><radialGradient id="Earthtone_19_Radial-2" cx="13.1053" cy="120.9955" fx="13.1053" fy="120.9955" r="8.8776" xlink:href="#Earthtone_19_Radial"/><radialGradient id="Earthtone_19_Radial-3" cx="18.6097" cy="118.9436" fx="18.6097" fy="118.9436" r="6.7786" xlink:href="#Earthtone_19_Radial"/><radialGradient id="Earthtone_19_Radial-4" cx="32.8903" cy="118.8113" fx="32.8903" fy="118.8113" r="6.5459" xlink:href="#Earthtone_19_Radial"/><radialGradient id="Earthtone_19_Radial-5" cx="43.4313" cy="118.8165" fx="43.4313" fy="118.8165" r="5.0199" xlink:href="#Earthtone_19_Radial"/><radialGradient id="Earthtone_19_Radial-6" cx="54.4014" cy="118.8165" fx="54.4014" fy="118.8165" r="6.6886" xlink:href="#Earthtone_19_Radial"/><radialGradient id="Earthtone_19_Radial-7" cx="67.3874" cy="118.6186" fx="67.3874" fy="118.6186" r="6.0122" xlink:href="#Earthtone_19_Radial"/><radialGradient id="Earthtone_19_Radial-8" cx="85.3797" cy="118.6237" fx="85.3797" fy="118.6237" r="5.627" xlink:href="#Earthtone_19_Radial"/><radialGradient id="Earthtone_19_Radial-9" cx="98.0419" cy="118.8084" fx="98.0419" fy="118.8084" r="7.0969" xlink:href="#Earthtone_19_Radial"/><radialGradient id="Earthtone_19_Radial-10" cx="109.0818" cy="118.8165" fx="109.0818" fy="118.8165" r="5.0196" xlink:href="#Earthtone_19_Radial"/><radialGradient id="Earthtone_19_Radial-11" cx="115.3134" cy="118.8165" fx="115.3134" fy="118.8165" r="5.5579" xlink:href="#Earthtone_19_Radial"/><radialGradient id="Earthtone_19_Radial-12" cx="125.2691" cy="118.6071" fx="125.2691" fy="118.6071" r="6.3181" xlink:href="#Earthtone_19_Radial"/></defs><path class="cls-15" d="M92.669,84.7017C102.5921,52.2243,121.6746,15.2113,147.8177,0c-.8277,1.1609-.8166,2.0504-1.2249,3.0767.3377.0905.6754.1788,1.0131.2693.1766,1.684-.2406,3.3813-1.0506,5.094-2.8074,1.1102-5.1293,2.5249-7.3408,4.0081,3.4762.4657,5.9724-.629,7.9058-2.6176-1.044,1.79-5.3721,3.6969-10.082,5.6215,2.7456-.7328,6.0916-.8144,7.3938-3.101-.8828,1.748-4.8998,3.3195-8.398,4.924,1.4412-.2008,2.8736-.4502,4.1471-1.2757-.9049,1.6928-2.6772,2.0967-3.9176,3.5005.0706,3.165-3.5269,5.648-7.9411,7.9831-.8674,2.8648-2.4521,5.3478-5.3632,7.1311,3.4033.4834,5.6833-1.0395,7.5107-3.3813-1.7922,4.0721-5.2639,5.7848-9.1859,6.8729-2.3483,5.6987-8.9277,10.3115-13.2448,16.0191,4.0743-3.1032,11.7726-3.8933,12.6025-7.3761-.1567,6.4249-10.5234,11.9779-15.3702,19.2326,1.8672-2.1563,3.24-3.7035,5.094-4.6879-1.5957,1.0638-2.7478,2.5558-3.8028,4.6128,1.6244-1.1455,2.9443-2.9796,4.8711-3.4342-2.2137.8939-5.5972,5.9216-8.8946,8.6121,4.3855-1.3662,6.3476-5.1536,9.965-6.7383-3.3239,1.8628-4.5863,5.531-7.716,7.4203,1.8495.8343,3.5578.6974,5.1028-.5143-2.0504,3.1252-5.3257,5.3235-9.3493,6.9501,2.2137-.629,3.8271-.8232,5.0476-.7239-3.4519.1324-7.0296,1.9378-10.8059,6.394l-4.6349,13.7745c-1.3728.6092-2.0592,2.3483-2.7412,4.551l1.1896-5.3191,4.0721-12.1765Z"/><path class="cls-2" d="M94.2576,85.4349l-4.1074,12.2119c-1.375.6092-2.0614,2.3483-2.7434,4.551l1.1896-5.3191,4.0721-12.1765,1.5891.7328Z"/><path class="cls-14" d="M87.697,101.9605c-.0449-.0646-.1264-.073-.1994-.0505-.0744.0211-.1278.1095-.1306.1867l-.0028.0758c-.0463.6894-.3341,1.4405-.8326,2.172-.3173.4661-.9042,1.0095-1.4307,1.484-.0084.007-.0154.0168-.0225.0253-.3861.3608-.6458.8466-.7553,1.4096-.2639,1.3647.483,2.7406,1.6651,3.0663.1769.0491.3552.0744.5349.0744.3608,0,.7174-.0997,1.0418-.292.629-.3735,1.0881-1.067,1.2931-1.9515.7722-3.3302-1.0825-6.0848-1.1611-6.2Z"/><path class="cls-1" d="M0,103.7215c.0226-1.0851.5317-2.5691,1.2403-3.6326.9081,2.5475,2.0817,3.4989,4.4287,3.4989.399,0,.9081-.0885,1.3288-.2202.399-.4442.6418-1.1519.6418-1.7947,0-1.5725-.8187-2.4355-3.4547-3.6326-2.8787-1.3052-3.8527-2.4571-3.8527-4.4051,0-2.4139,2.059-4.2311,4.8277-4.2311,1.7495,0,3.2109.3764,4.2518,1.0644-.0668.9081-.6202,2.1917-1.2846,2.923-.8639-2.1052-1.9932-2.923-4.0965-2.923-.3106,0-.5759.0432-.8639.0885-.4433.4423-.686,1.1067-.686,1.6826,0,1.2403.6644,1.8812,3.4537,3.21,2.7687,1.3072,3.8537,2.6576,3.8537,4.8061,0,2.6576-2.3254,4.5387-5.558,4.5387-1.6168,0-3.2119-.3538-4.2301-.973Z"/><path class="cls-1" d="M12.3101,101.463v-5.4921h-2.0148v-.112c1.1735-.7529,3.321-2.6124,4.6498-4.2065h.1111v2.5691c.8197.2437,2.3696.3754,3.6758.4423v.1101c-1.0624.7981-2.5682,1.1971-3.6532,1.2187v5.0046c0,1.3956.6634,1.9264,1.66,1.9264.687,0,1.2403-.1769,1.661-.4207l.0226.0216c-.5317,1.4841-1.661,2.1701-3.034,2.1701-1.949,0-3.0783-1.0182-3.0783-3.2316Z"/><path class="cls-1" d="M19.8376,102.6149v-4.983c0-.975-.3538-1.4408-.9072-1.8163l3.6758-1.3956v8.1949c0,.8413.2654,1.3268.8187,1.7711h-4.4061c.5533-.399.8187-.9534.8187-1.7711ZM19.129,90.1456c.7086-.4865,1.7937-.9966,2.8129-1.1293.4423.6428.9081,1.8831,1.0624,2.8129-.6644.4659-1.8379.9298-2.7677,1.0634-.5317-.7096-.9966-1.7278-1.1077-2.747Z"/><path class="cls-1" d="M24.8639,99.9121c0-3.6758,2.7461-5.4921,5.0488-5.4921,1.4399,0,2.4807.289,3.4104.9081-.1995.8413-.9966,2.06-1.7268,2.6576-.6644-1.9264-1.8163-2.7461-2.8129-2.7461-.1553,0-.288.0216-.4207.0668-.5317.7529-.8197,1.9264-.8197,3.0566,0,2.8561,1.5951,4.4051,3.5431,4.4051.9081,0,1.5499-.1317,2.2143-.4207l.0226.0452c-.7971,1.6826-2.2812,2.3018-3.9422,2.3018-2.1917,0-4.5171-1.6158-4.5171-4.7825Z"/><path class="cls-1" d="M41.3598,102.6149v-4.1633c0-1.3072-.5307-2.3922-2.1259-2.3922-.4423,0-.9072.0885-1.1509.1553v6.4002c0,.8413.2654,1.3268.8187,1.7711h-4.4061c.5533-.399.8187-.9534.8187-1.7711v-11.0727c0-.7529-.1769-1.374-.9072-1.8173l3.6758-1.0851v7.2425l2.8345-1.4841c1.8153,0,3.2109.7981,3.2109,3.4989v4.7176c0,.8413.2437,1.3268.7971,1.7711h-4.3844c.5533-.399.8187-.9534.8187-1.7711Z"/><path class="cls-1" d="M47.4701,101.463v-5.4921h-2.0148v-.112c1.1735-.7529,3.321-2.6124,4.6498-4.2065h.1111v2.5691c.8197.2437,2.3696.3754,3.6758.4423v.1101c-1.0624.7981-2.5682,1.1971-3.6532,1.2187v5.0046c0,1.3956.6634,1.9264,1.66,1.9264.687,0,1.2403-.1769,1.661-.4207l.0226.0216c-.5317,1.4841-1.661,2.1701-3.034,2.1701-1.949,0-3.0783-1.0182-3.0783-3.2316Z"/><path class="cls-1" d="M54.9977,102.6149v-4.983c0-.975-.3538-1.4408-.9072-1.8163l3.6758-1.3956v8.1949c0,.8413.2654,1.3268.8187,1.7711h-4.4061c.5533-.399.8187-.9534.8187-1.7711ZM54.2891,90.1456c.7086-.4865,1.7937-.9966,2.8129-1.1293.4423.6428.9081,1.8831,1.0624,2.8129-.6644.4659-1.8379.9298-2.7677,1.0634-.5317-.7096-.9966-1.7278-1.1077-2.747Z"/><path class="cls-1" d="M61.0205,102.6149v-4.9614c0-.975-.3548-1.4625-.9081-1.8163l3.6316-1.4173.0226,1.4841,2.8561-1.4841c1.8163,0,3.2109.7981,3.2109,3.2119v4.983c0,.8413.2437,1.3268.8197,1.7711h-4.407c.5543-.399.8197-.9534.8197-1.7711v-4.1201c0-1.661-.9081-2.4355-2.2812-2.4355-.3764,0-.8187.0885-.9966.1553v6.4002c0,.8413.2437,1.3268.8197,1.7711h-4.407c.5543-.399.8197-.9534.8197-1.7711Z"/><path class="cls-1" d="M80.351,96.1262c0,.4423.2437.7961.2437,1.7042,0,2.3038-1.9047,3.609-4.0748,3.609-.5976,0-1.1735-.0649-1.6836-.2202-.1985.2654-.3312.5524-.3312.8413,0,.5759.4207.8413,1.4831.8413h2.5023c2.0374,0,3.0783.975,3.0783,2.4355,0,2.2822-2.1043,4.2301-5.1599,4.2301-2.3028,0-3.8753-.7312-4.7383-1.9716l2.1475-1.8379c.5976,1.8379,2.0148,2.9682,3.6984,2.9682.4865,0,.8855-.0885,1.3062-.2654.3764-.5091.5533-.975.5533-1.6394,0-.975-.686-1.5509-2.236-1.5509h-1.8821c-1.949,0-2.9013-.686-3.3004-1.7927l2.4581-2.3922c-1.3062-.4875-2.1701-1.5273-2.1701-3.0783,0-2.2369,1.7721-3.5874,4.1417-3.5874,1.5499,0,2.0374.289,4.584.289.288,0,.5091-.0236.8629-.0452v.2005c-1.0851.4855-1.4831.7293-1.4831,1.262ZM77.9371,98.4732c0-1.5942-.6202-2.8797-1.6836-3.2552-.2654-.0885-.4865-.1337-.7302-.1337-.3764.6212-.5533,1.4389-.5533,2.1485,0,1.6826.5976,2.923,1.9038,3.4773.1779.0432.399.0432.5759.0216.3322-.5091.4875-1.3288.4875-2.2586Z"/><path class="cls-10" d="M21.8038,126.7956c-.7438.4774-1.7389.719-2.9585.719-1.9892,0-5.2778-.7467-9.7768-2.2193-.1703-.0529-.3267-.1473-.4659-.283-.1237-.1173-.1893-.3647-.1893-.7156v-10.4901c0-.191.0454-.3543.1409-.5016.2008-.3302.4964-.4901.9037-.4901h.3164l.0449-.4763h-5.807v.4763h.3825c.2755,0,.5056.0932.7024.283.1967.1921.298.4257.3089.7087v10.0149c-.0109.2853-.115.5258-.3083.7133-.1985.191-.428.2842-.7029.2842h-.3825v.4751h.1473c1.0136,0,2.0168.1967,2.9855.5867.3486.1323.7104.2888,1.0745.4648.371.1818.8082.3992,1.3069.6592l1.2931.6696c.3664.1887.8318.4084,1.3834.6546.5425.2416,1.0383.4441,1.4743.6017.4366.1553.9342.3049,1.4766.4452.5551.145.9998.2289,1.323.2497.3106.0184.5839.0265.8214.0265.2456,0,.535-.0184.8571-.0552,1.5779-.1588,2.9153-.9814,3.9737-2.4459l.069-.0955-.2882-.3279-.1064.0679Z"/><path class="cls-3" d="M21.4816,112.815h.4372c.2307,0,.4211.0679.5816.2071.1547.1358.2301.3037.2301.5131v7.1422c-.0115,1.1643-.3273,2.0962-.9388,2.7703-.6075.6696-1.4473,1.009-2.496,1.009-1.0469,0-1.8787-.3601-2.473-1.0688-.6005-.7156-.9049-1.7062-.9049-2.9441v-6.9029c.0086-.2117.0874-.382.241-.52.153-.1381.3394-.2059.5689-.2059h.4372v-.4763h-5.5033v.4763h.4372c.2295,0,.4188.0702.5793.2151.1565.1415.2324.3187.2324.5419v7.0168c0,1.5462.5286,2.7738,1.571,3.6493,1.0354.8698,2.5403,1.3104,4.4719,1.3104,1.6463,0,2.9642-.4521,3.9174-1.3438.9543-.8916,1.4381-2.1146,1.4381-3.6332v-7.0547c0-.1967.0754-.3589.2301-.4936.1605-.1404.3451-.2082.5643-.2082h.4544v-.4763h-4.0761v.4763Z"/><path class="cls-4" d="M38.6496,119.7178l-.0201.1231c-.2807,1.7188-.7892,2.9452-1.51,3.6447-.7052.6684-1.7482,1.0078-3.0965,1.0078-1.2972-.0357-2.3383-.5637-3.0959-1.5693-.7662-1.017-1.1551-2.4172-1.1551-4.1613,0-1.7418.4055-3.1316,1.2057-4.1325.7933-.9894,1.8897-1.491,3.2587-1.491,2.1399,0,3.4716,1.0538,4.0715,3.2202l.0299.1081h.4061l-.0397-3.3479-.0782-.0414c-1.2696-.6592-2.8072-.9929-4.5703-.9929-2.3182,0-4.1705.6063-5.5062,1.8016-1.3403,1.1988-2.0202,2.8578-2.0202,4.9286,0,2.0732.6863,3.7298,2.0392,4.9217,1.3478,1.1896,3.2242,1.7947,5.5769,1.7993h.0299c2.3562,0,4.056-.8364,5.0523-2.485l.0236-.0391-.1927-3.295h-.409Z"/><path class="cls-5" d="M45.2246,113.0992c.2025-.191.4349-.2842.7121-.2842h.3509l.0483-.4763h-5.8093v.4763h.382c.2761,0,.5062.092.7024.283.1973.1921.2985.4199.3095.6914v10.0322c-.0109.2727-.1156.5097-.3106.7052-.1967.1967-.4257.2922-.7012.2922h-.382v.4751h5.8093l-.0483-.4751h-.3509c-.2761,0-.5085-.0966-.711-.2945-.2002-.1933-.298-.4211-.298-.6972v-10.0379c0-.2761.0966-.5016.2968-.6903Z"/><path class="cls-6" d="M59.3835,114.0771c-1.2632-1.1528-3.0004-1.7384-5.1633-1.7384h-6.7119v.4763h.382c.2669,0,.489.0851.6788.2589.1921.1772.3014.3866.3325.6236v10.1242c-.0104.2727-.1139.5097-.3106.7041-.1967.1979-.4257.2934-.7006.2934h-.382v.4751h6.7119c2.1617,0,3.899-.5844,5.1633-1.7384,1.2678-1.1574,1.9109-2.7531,1.9109-4.74,0-1.9857-.6431-3.5803-1.9109-4.7377v-.0012ZM58.0524,118.8159c0,1.1091-.1668,2.0858-.4959,2.9015-.3244.8076-.7973,1.4369-1.4036,1.8718-.604.4314-1.3334.65-2.1675.65h-2.0766v-10.8467h2.0766c1.246,0,2.2446.4855,2.9671,1.4427.7294.9699,1.0999,2.309,1.0999,3.9807Z"/><path class="cls-7" d="M72.1481,121.4137c-.2784.8951-.711,1.5957-1.2851,2.0835-.5672.4809-1.2793.7248-2.1192.7248h-2.2204v-4.7883h2.2492c.2715.0115.5108.0771.7271.1967.4395.2635.6535.6592.6535,1.2115v.2922h.474v-4.4719h-.474v.3095c0,.3981-.1289.7225-.3923.9906-.2658.2704-.5936.4073-.9986.4176h-2.2388v-4.9678h2.8842c.4993.0207.9008.1852,1.193.4878.2945.3049.4372.7006.4372,1.2092v.3636h.4763v-3.5297l-.2013.0805c-.1714.069-.4786.1392-.9112.2094s-.8387.1058-1.2057.1058h-7.0743v.4763h.382c.1691,0,.3313.0414.4901.1254.3187.1818.489.451.5212.8122v10.069c-.0104.2727-.1139.5097-.3106.7041-.1967.1979-.4257.2934-.7006.2934h-.382v.4751h9.6329l.8985-3.9841h-.4728l-.0322.1035Z"/><path class="cls-8" d="M88.5631,112.9208c.1852-.2335.5223-.3912,1.0044-.4705l.1519-.0242-.1001-.4728-.1415.0265c-.8629.1668-2.2848.2865-4.2269.3589-.8606.0368-1.3691.061-1.5244.0725-.8962.0621-1.5727.2773-2.0099.6397-.4487.3693-.6765.8491-.6765,1.4254,0,.3693.1139.7029.3371.9929.3164.4222.7754.6362,1.3645.6362.1864,0,.4096-.0449.6627-.1335l.0989-.0345v-.3612h-.2554c-.3612,0-.6316-.0955-.8272-.2922-.1967-.1944-.2922-.4291-.2922-.7179,0-.7087.5108-1.0745,1.56-1.1183l1.5658-.0656v10.4394c-.0115.2727-.115.5097-.3118.7052-.1944.1967-.4234.2922-.7006.2922h-.382v.4751h5.7927v-.4751h-.382c-.275,0-.5039-.0955-.7006-.2934-.1956-.1944-.2991-.4314-.3083-.6983v-9.8182c.0092-.4809.1116-.8468.3014-1.0884Z"/><path class="cls-9" d="M99.7032,112.815h.4717c.2658,0,.4867.0897.6753.2727.1898.1864.2876.4107.2991.6822v6.8005l-8.884-8.4618-.0426-.0403h-.39l.0598.4475c.1047.5131.1588,1.1735.1588,1.9604v9.3856c0,.2761-.092.4993-.2796.6822-.191.1852-.4176.275-.6926.275h-.474v.4751h5.7754v-.4751h-.4924c-.2623,0-.4832-.0897-.6742-.275-.1887-.1841-.2807-.4015-.2807-.6638v-6.8361l8.8851,8.4641.0426.0403h.4004l-.0886-.4475c-.107-.5476-.1611-1.2253-.1611-2.0156v-9.3269c.0115-.2646.1093-.4832.3003-.6696.1898-.1841.4107-.2738.6742-.2738h.4924v-.4763h-5.7754v.4763Z"/><path class="cls-13" d="M111.5887,124.8191c-.2761,0-.5085-.0966-.7121-.2945-.2002-.1933-.298-.4211-.298-.6972v-10.0379c0-.1795.0449-.3371.1404-.4844.2013-.3302.4855-.4901.8698-.4901h.3509l.046-.4763h-5.8076v.4763h.382c.1783,0,.3428.0426.489.1266.3405.191.5108.4694.5223.8479v10.0322c-.0115.2727-.115.5097-.3106.7041-.1967.1979-.4257.2934-.7006.2934h-.382v.4751h5.8076l-.046-.4751h-.3509Z"/><path class="cls-12" d="M117.8922,123.7572l-4.4351-6.055,3.4503-4.0888c.4821-.5499,1.0907-.8168,1.8603-.8168h.2197v-.4579h-4.4362v.4579h.329c.2451,0,.3313.1104.3751.1933.0253.0472.038.1093.038.1829,0,.061-.0391.1427-.115.2381l-4.2867,5.6788-.0299.0391v.0495c0,.0748,0,.1208,3.2674,4.5559.7846,1.0354,2.133,1.56,4.0071,1.56h1.6291v-.4694l-.1415-.0058c-.627-.023-1.2103-.382-1.7315-1.0619Z"/><path class="cls-11" d="M130.9904,112.0074c-.0725.0311-.2957.0886-.6615.1726-.3624.0817-.8398.1289-1.4162.1415h-7.2871c-.3636,0-.7559-.0345-1.1976-.1058-.4268-.0702-.7225-.1404-.8801-.2082l-.2048-.0874v3.517h.4763v-.3636c0-.5085.1461-.9077.4464-1.2184.3026-.3118.7006-.4694,1.2149-.4797h2.2941v10.4739c-.0219.2704-.1289.4947-.3267.6857-.1933.1887-.4234.2842-.6834.2842h-.382v.4751h5.8099l-.0518-.4751h-.3474c-.2773,0-.5062-.0932-.7029-.2842-.1967-.1898-.2968-.4165-.3083-.6903v-10.4693h2.2722c.512.0104.9215.1714,1.2184.4797.3003.3106.4464.7098.4464,1.2184v.3636h.4763v-3.5159l-.2048.0863Z"/></svg>