<?xml version="1.0" encoding="UTF-8"?><svg id="Layer_1" xmlns="http://www.w3.org/2000/svg" xmlns:xlink="http://www.w3.org/1999/xlink" viewBox="0 0 147.8177 130.1266"><defs><linearGradient id="Autumn_Crimson" x1="87.4073" y1="51.0987" x2="147.8177" y2="51.0987" gradientUnits="userSpaceOnUse"><stop offset="0" stop-color="#ad6766"/><stop offset=".0138" stop-color="#ac6564"/><stop offset=".5" stop-color="#942e40"/><stop offset=".7404" stop-color="#7a3041"/><stop offset="1" stop-color="#633343"/></linearGradient><linearGradient id="linear-gradient" x1="87.4068" y1="93.45" x2="94.2576" y2="93.45" gradientUnits="userSpaceOnUse"><stop offset="0" stop-color="#867278"/><stop offset=".5" stop-color="#5c4a56"/><stop offset="1" stop-color="#433545"/></linearGradient><radialGradient id="Earthtone_19_Radial" cx="86.658" cy="106.1513" fx="86.658" fy="106.1513" r="3.4487" gradientUnits="userSpaceOnUse"><stop offset="0" stop-color="#b27867"/><stop offset=".5" stop-color="#8d4130"/><stop offset="1" stop-color="#7a1e15"/></radialGradient><radialGradient id="Earthtone_19_Radial-2" cx="10.5877" cy="121.3988" fx="10.5877" fy="121.3988" r="9.186" xlink:href="#Earthtone_19_Radial"/><radialGradient id="Earthtone_19_Radial-3" cx="16.1891" cy="119.1222" fx="16.1891" fy="119.1222" r="6.8267" xlink:href="#Earthtone_19_Radial"/><radialGradient id="Earthtone_19_Radial-4" cx="30.853" cy="118.9913" fx="30.853" fy="118.9913" r="6.5303" xlink:href="#Earthtone_19_Radial"/><radialGradient id="Earthtone_19_Radial-5" cx="41.7592" cy="118.9957" fx="41.7592" fy="118.9957" r="5.026" xlink:href="#Earthtone_19_Radial"/><radialGradient id="Earthtone_19_Radial-6" cx="53.0987" cy="118.9957" fx="53.0987" fy="118.9957" r="6.6862" xlink:href="#Earthtone_19_Radial"/><radialGradient id="Earthtone_19_Radial-7" cx="66.5528" cy="118.8332" fx="66.5528" fy="118.8332" r="6.0731" xlink:href="#Earthtone_19_Radial"/><radialGradient id="Earthtone_19_Radial-8" cx="85.3632" cy="118.8151" fx="85.3632" fy="118.8151" r="5.6407" xlink:href="#Earthtone_19_Radial"/><radialGradient id="Earthtone_19_Radial-9" cx="98.41" cy="118.9866" fx="98.41" fy="118.9866" r="7.1105" xlink:href="#Earthtone_19_Radial"/><radialGradient id="Earthtone_19_Radial-10" cx="113.9411" cy="118.9957" fx="113.9411" fy="118.9957" r="6.8783" xlink:href="#Earthtone_19_Radial"/><radialGradient id="Earthtone_19_Radial-11" cx="127.1599" cy="118.8241" fx="127.1599" fy="118.8241" r="6.3183" xlink:href="#Earthtone_19_Radial"/></defs><path d="M92.669,84.7017C102.5921,52.2243,121.6746,15.2113,147.8177,0c-.8277,1.1609-.8166,2.0504-1.2249,3.0767.3377.0905.6754.1788,1.0131.2693.1766,1.684-.2406,3.3813-1.0506,5.094-2.8074,1.1102-5.1293,2.5249-7.3408,4.0081,3.4762.4657,5.9724-.629,7.9058-2.6176-1.044,1.79-5.3721,3.6969-10.082,5.6215,2.7456-.7328,6.0916-.8144,7.3938-3.101-.8828,1.748-4.8998,3.3195-8.398,4.924,1.4412-.2008,2.8736-.4502,4.1471-1.2757-.9049,1.6928-2.6772,2.0967-3.9176,3.5005.0706,3.165-3.5269,5.648-7.9411,7.9831-.8674,2.8648-2.4521,5.3478-5.3632,7.1311,3.4033.4834,5.6833-1.0395,7.5107-3.3813-1.7922,4.0721-5.2639,5.7848-9.1859,6.8729-2.3483,5.6987-8.9277,10.3115-13.2448,16.0191,4.0743-3.1032,11.7726-3.8933,12.6025-7.3761-.1567,6.4249-10.5234,11.9779-15.3702,19.2326,1.8672-2.1563,3.24-3.7035,5.094-4.6879-1.5957,1.0638-2.7478,2.5558-3.8028,4.6128,1.6244-1.1455,2.9443-2.9796,4.8711-3.4342-2.2137.8939-5.5972,5.9216-8.8946,8.6121,4.3855-1.3662,6.3476-5.1536,9.965-6.7383-3.3239,1.8628-4.5863,5.531-7.716,7.4203,1.8495.8343,3.5578.6974,5.1028-.5143-2.0504,3.1252-5.3257,5.3235-9.3493,6.9501,2.2137-.629,3.8271-.8232,5.0476-.7239-3.4519.1324-7.0296,1.9378-10.8059,6.394l-4.6349,13.7745c-1.3728.6092-2.0592,2.3483-2.7412,4.551l1.1896-5.3191,4.0721-12.1765Z" fill="url(#Autumn_Crimson)"/><path d="M94.2576,85.4349l-4.1074,12.2119c-1.375.6092-2.0614,2.3483-2.7434,4.551l1.1896-5.3191,4.0721-12.1765,1.5891.7328Z" fill="url(#linear-gradient)"/><path d="M87.697,101.9605c-.0449-.0646-.1264-.073-.1994-.0505-.0744.0211-.1278.1095-.1306.1867l-.0028.0758c-.0463.6894-.3341,1.4405-.8326,2.172-.3173.4661-.9042,1.0095-1.4307,1.484-.0084.007-.0154.0168-.0225.0253-.3861.3608-.6458.8466-.7553,1.4096-.2639,1.3647.483,2.7406,1.6651,3.0663.1769.0491.3552.0744.5349.0744.3608,0,.7174-.0997,1.0418-.292.629-.3735,1.0881-1.067,1.2931-1.9515.7722-3.3302-1.0825-6.0848-1.1611-6.2Z" fill="url(#Earthtone_19_Radial)"/><path d="M0,103.7215c.0226-1.0851.5317-2.5691,1.2403-3.6326.9081,2.5475,2.0817,3.4989,4.4287,3.4989.399,0,.9081-.0885,1.3288-.2202.399-.4442.6418-1.1519.6418-1.7947,0-1.5725-.8187-2.4355-3.4547-3.6326-2.8787-1.3052-3.8527-2.4571-3.8527-4.4051,0-2.4139,2.059-4.2311,4.8277-4.2311,1.7495,0,3.2109.3764,4.2518,1.0644-.0668.9081-.6202,2.1917-1.2846,2.923-.8639-2.1052-1.9932-2.923-4.0965-2.923-.3106,0-.5759.0432-.8639.0885-.4433.4423-.686,1.1067-.686,1.6826,0,1.2403.6644,1.8812,3.4537,3.21,2.7687,1.3072,3.8537,2.6576,3.8537,4.8061,0,2.6576-2.3254,4.5387-5.558,4.5387-1.6168,0-3.2119-.3538-4.2301-.973Z" fill="#695a44"/><path d="M12.3101,101.463v-5.4921h-2.0148v-.112c1.1735-.7529,3.321-2.6124,4.6498-4.2065h.1111v2.5691c.8197.2437,2.3696.3754,3.6758.4423v.1101c-1.0624.7981-2.5682,1.1971-3.6532,1.2187v5.0046c0,1.3956.6634,1.9264,1.66,1.9264.687,0,1.2403-.1769,1.661-.4207l.0226.0216c-.5317,1.4841-1.661,2.1701-3.034,2.1701-1.949,0-3.0783-1.0182-3.0783-3.2316Z" fill="#695a44"/><path d="M19.8376,102.6149v-4.983c0-.975-.3538-1.4408-.9072-1.8163l3.6758-1.3956v8.1949c0,.8413.2654,1.3268.8187,1.7711h-4.4061c.5533-.399.8187-.9534.8187-1.7711ZM19.129,90.1456c.7086-.4865,1.7937-.9966,2.8129-1.1293.4423.6428.9081,1.8831,1.0624,2.8129-.6644.4659-1.8379.9298-2.7677,1.0634-.5317-.7096-.9966-1.7278-1.1077-2.747Z" fill="#695a44"/><path d="M24.8639,99.9121c0-3.6758,2.7461-5.4921,5.0488-5.4921,1.4399,0,2.4807.289,3.4104.9081-.1995.8413-.9966,2.06-1.7268,2.6576-.6644-1.9264-1.8163-2.7461-2.8129-2.7461-.1553,0-.288.0216-.4207.0668-.5317.7529-.8197,1.9264-.8197,3.0566,0,2.8561,1.5951,4.4051,3.5431,4.4051.9081,0,1.5499-.1317,2.2143-.4207l.0226.0452c-.7971,1.6826-2.2812,2.3018-3.9422,2.3018-2.1917,0-4.5171-1.6158-4.5171-4.7825Z" fill="#695a44"/><path d="M41.3598,102.6149v-4.1633c0-1.3072-.5307-2.3922-2.1259-2.3922-.4423,0-.9072.0885-1.1509.1553v6.4002c0,.8413.2654,1.3268.8187,1.7711h-4.4061c.5533-.399.8187-.9534.8187-1.7711v-11.0727c0-.7529-.1769-1.374-.9072-1.8173l3.6758-1.0851v7.2425l2.8345-1.4841c1.8153,0,3.2109.7981,3.2109,3.4989v4.7176c0,.8413.2437,1.3268.7971,1.7711h-4.3844c.5533-.399.8187-.9534.8187-1.7711Z" fill="#695a44"/><path d="M47.4701,101.463v-5.4921h-2.0148v-.112c1.1735-.7529,3.321-2.6124,4.6498-4.2065h.1111v2.5691c.8197.2437,2.3696.3754,3.6758.4423v.1101c-1.0624.7981-2.5682,1.1971-3.6532,1.2187v5.0046c0,1.3956.6634,1.9264,1.66,1.9264.687,0,1.2403-.1769,1.661-.4207l.0226.0216c-.5317,1.4841-1.661,2.1701-3.034,2.1701-1.949,0-3.0783-1.0182-3.0783-3.2316Z" fill="#695a44"/><path d="M54.9977,102.6149v-4.983c0-.975-.3538-1.4408-.9072-1.8163l3.6758-1.3956v8.1949c0,.8413.2654,1.3268.8187,1.7711h-4.4061c.5533-.399.8187-.9534.8187-1.7711ZM54.2891,90.1456c.7086-.4865,1.7937-.9966,2.8129-1.1293.4423.6428.9081,1.8831,1.0624,2.8129-.6644.4659-1.8379.9298-2.7677,1.0634-.5317-.7096-.9966-1.7278-1.1077-2.747Z" fill="#695a44"/><path d="M61.0205,102.6149v-4.9614c0-.975-.3548-1.4625-.9081-1.8163l3.6316-1.4173.0226,1.4841,2.8561-1.4841c1.8163,0,3.2109.7981,3.2109,3.2119v4.983c0,.8413.2437,1.3268.8197,1.7711h-4.407c.5543-.399.8197-.9534.8197-1.7711v-4.1201c0-1.661-.9081-2.4355-2.2812-2.4355-.3764,0-.8187.0885-.9966.1553v6.4002c0,.8413.2437,1.3268.8197,1.7711h-4.407c.5543-.399.8197-.9534.8197-1.7711Z" fill="#695a44"/><path d="M80.351,96.1262c0,.4423.2437.7961.2437,1.7042,0,2.3038-1.9047,3.609-4.0748,3.609-.5976,0-1.1735-.0649-1.6836-.2202-.1985.2654-.3312.5524-.3312.8413,0,.5759.4207.8413,1.4831.8413h2.5023c2.0374,0,3.0783.975,3.0783,2.4355,0,2.2822-2.1043,4.2301-5.1599,4.2301-2.3028,0-3.8753-.7312-4.7383-1.9716l2.1475-1.8379c.5976,1.8379,2.0148,2.9682,3.6984,2.9682.4865,0,.8855-.0885,1.3062-.2654.3764-.5091.5533-.975.5533-1.6394,0-.975-.686-1.5509-2.236-1.5509h-1.8821c-1.949,0-2.9013-.686-3.3004-1.7927l2.4581-2.3922c-1.3062-.4875-2.1701-1.5273-2.1701-3.0783,0-2.2369,1.7721-3.5874,4.1417-3.5874,1.5499,0,2.0374.289,4.584.289.288,0,.5091-.0236.8629-.0452v.2005c-1.0851.4855-1.4831.7293-1.4831,1.262ZM77.9371,98.4732c0-1.5942-.6202-2.8797-1.6836-3.2552-.2654-.0885-.4865-.1337-.7302-.1337-.3764.6212-.5533,1.4389-.5533,2.1485,0,1.6826.5976,2.923,1.9038,3.4773.1779.0432.399.0432.5759.0216.3322-.5091.4875-1.3288.4875-2.2586Z" fill="#695a44"/><path d="M16.9396,127.7237c1.5059,0,2.548-.2593,3.1264-.7769l.1441.1265c-.5304,1.1441-1.2892,1.9936-2.2764,2.548-.6147.3368-1.5186.5054-2.7107.5054-.1206,0-.3284-.0059-.6235-.0176s-.7716-.1118-1.4274-.298c-.6568-.1873-1.2078-.3554-1.6539-.5059-.4461-.151-1.0059-.3828-1.6804-.6961-.8431-.3975-1.6509-.798-2.4215-1.2014-.7706-.4039-1.3343-.6956-1.6892-.8765-.3559-.1809-.7265-.3524-1.1117-.5152s-.9157-.3191-1.5902-.4696c-.6745-.151-1.3617-.226-2.0598-.226v-.1809h.2353c.4333,0,.7647-.1863.9931-.5598.0971-.1686.151-.3618.1627-.5784v-10.0111c-.0118-.4456-.2108-.7769-.5961-.9936-.1686-.0966-.3559-.1446-.5598-.1446h-.2353v-.1809h6.4871v.1809h-.1627c-.349,0-.6382.1083-.8676.325-.2284.2172-.349.4882-.3608.8132v10.5169c0,.5667.2284.9216.6863,1.0662,4.6627,1.4333,8.0596,2.1504,10.192,2.1504Z" fill="url(#Earthtone_19_Radial-2)"/><path d="M23.3718,112.852h-.2892c-.2529,0-.4725.0814-.6588.2441-.1873.1623-.2863.3642-.298.6049v6.9754c0,1.5299-.4735,2.7284-1.4186,3.596-.9461.8671-2.2745,1.301-3.9852,1.301-2.1676,0-3.7882-.4216-4.8607-1.2647s-1.6078-2.048-1.6078-3.6141v-6.9391c0-.2647-.0941-.4819-.2804-.6505-.1873-.1686-.4127-.2529-.6774-.2529h-.2892v-.1809h6.1979v.1809h-.2892c-.2647,0-.4872.0814-.6686.2441-.1804.1623-.2774.3701-.2892.623v6.9028c0,1.2652.2892,2.2529.8676,2.9637s1.3853,1.0662,2.4215,1.0662,1.846-.3343,2.4303-1.0029.8765-1.599.8765-2.7916v-7.1381c-.0118-.2529-.1088-.4608-.2892-.623-.1804-.1627-.4039-.2441-.6686-.2441h-.2892v-.1809h4.0656v.1809Z" fill="url(#Earthtone_19_Radial-3)"/><path d="M24.3659,118.9778c0-1.3612.3137-2.5357.9402-3.5239.6255-.9877,1.5323-1.7407,2.7196-2.2588,1.1863-.5176,2.6411-.7769,4.3636-.7769s3.2342.2774,4.5352.8314l-.1804,3.4514h-.1627c-.349-1.2166-.8549-2.0843-1.5176-2.6024-.6627-.5176-1.4882-.7769-2.4754-.7769-1.3372,0-2.3794.4941-3.1264,1.4818-.747.9882-1.1206,2.3647-1.1206,4.1293s.3461,3.1529,1.0392,4.1651c.6921,1.0117,1.6539,1.5358,2.8823,1.572,1.4215,0,2.4509-.3372,3.0901-1.0117.6019-.6265,1.0715-1.8313,1.4088-3.6141h.1451l.4333,3.2887c-.8912,1.4941-2.5745,2.2377-5.0499,2.2318-2.4764-.0064-4.4156-.5843-5.8195-1.7348-1.4029-1.1505-2.1049-2.7676-2.1049-4.8519Z" fill="url(#Earthtone_19_Radial-4)"/><path d="M38.7509,125.1395c.3127,0,.5804-.1113.8039-.3343.2225-.2225.3402-.4907.352-.8039v-10.0292c-.0118-.3127-.1294-.5779-.352-.7951-.2235-.2167-.4912-.325-.8039-.325h-.2353v-.1809h6.4871v.1809h-.2353c-.3127,0-.5814.1083-.8039.325-.2225.2172-.3402.4823-.352.7951v10.0292c0,.3132.1137.5814.3431.8039.2284.223.5.3343.8127.3343h.2353v.1809h-6.4871v-.1809h.2353Z" fill="url(#Earthtone_19_Radial-5)"/><path d="M58.2211,114.3426c1.2715,1.1147,1.9068,2.6656,1.9068,4.6533s-.6353,3.5387-1.9068,4.6528c-1.2706,1.1147-3.0382,1.6715-5.3028,1.6715h-6.8489v-.1809h.2353c.3127,0,.5804-.1113.8039-.3343.2225-.2225.3402-.4907.352-.8039v-10.1194c0-.2892-.1176-.5328-.352-.7318-.2353-.1985-.5029-.298-.8039-.298h-.2176l-.0176-.1809h6.8489c2.2647,0,4.0323.5573,5.3028,1.6715ZM51.1654,113.5745v10.8424h1.3911c1.1206,0,2-.4789,2.6382-1.4367s.9578-2.2857.9578-3.9842-.3196-3.0269-.9578-3.9847-1.5176-1.4367-2.6382-1.4367h-1.3911Z" fill="url(#Earthtone_19_Radial-6)"/><path d="M61.1593,125.1395c.3127,0,.5804-.1113.8039-.3343.2225-.2225.3402-.4907.352-.8039v-10.0111c-.0118-.3853-.1745-.6926-.4872-.9216-.1931-.1446-.4157-.2167-.6686-.2167h-.2353v-.1809h8.0047c.5186,0,.9794-.0422,1.3823-.1265.4039-.0838.6598-.1505.7686-.1985v3.7225h-.1814v-.1446c0-.9637-.349-1.6382-1.048-2.024-.3372-.1926-.7402-.2951-1.2108-.3073h-2.6196v5.0416h1.9696c.5784-.0118,1.048-.2015,1.4098-.5691.3608-.3671.5421-.8402.5421-1.4186v-.0721h.1804v5.0234h-.1804v-.0902c0-.5662-.1814-1.0328-.5421-1.4005-.3618-.3676-.8255-.5573-1.3921-.5691h-1.9872v4.8607h2.2225c.8794,0,1.6558-.2892,2.3313-.8676.6745-.5779,1.15-1.3789,1.4274-2.4029h.1804l-.6863,4.1921h-10.5714v-.1809h.2353Z" fill="url(#Earthtone_19_Radial-7)"/><path d="M89.7087,125.1395h.2353v.1809h-6.4871v-.1809h.2353c.3127,0,.5804-.1113.8039-.3343.2225-.2225.3402-.4907.352-.8039v-10.4268l-1.5715.0544c-1.0127.0363-1.5549.4098-1.6264,1.1206v.1083c0,.3372.1137.6083.3431.8132.2284.2049.5176.3069.8676.3069h.2167v.1083c-.2657.1446-.5274.2172-.7863.2172s-.5216-.0784-.7863-.2348c-.5059-.301-.7588-.747-.7588-1.3372,0-.5539.2167-1.0147.651-1.3823.4333-.3676,1.1137-.5696,2.0421-.6054.1324-.0123.5569-.0299,1.2735-.0544.7167-.024,1.3343-.0422,1.8519-.0544,1.4941-.0721,2.6205-.1804,3.3793-.325l.0363.1809c-.6745.1083-1.1019.3975-1.2833.8671-.0843.2289-.1324.5181-.1441.8676v9.7758c0,.3132.1137.5814.3431.8039.2284.223.5.3343.8127.3343Z" fill="url(#Earthtone_19_Radial-8)"/><path d="M105.6829,112.852c-.301,0-.5598.1054-.7765.3162-.2176.2108-.3323.4671-.3441.7681v9.3243c0,.8916.0608,1.5779.1814,2.0598l.0539.2529h-.1627l-8.6557-7.6979v6.1621c0,.4333.1873.7529.5608.9573.1686.0966.349.1446.5421.1446h.3431v.1809h-6.6136v-.1809h.3431c.301,0,.5598-.1049.7765-.3162.2176-.2103.3255-.4725.3255-.7858v-9.3787c0-.8431-.0598-1.5117-.1804-2.0058l-.0539-.2529h.1804l8.6557,7.6979v-6.1435c-.0127-.3132-.1265-.5755-.3431-.7863-.2176-.2108-.4765-.3162-.7774-.3162h-.3431v-.1809h6.6136v.1809h-.3255Z" fill="url(#Earthtone_19_Radial-9)"/><path d="M106.7858,125.1395c.3127,0,.5804-.1113.8039-.3343.2225-.2225.3402-.4907.352-.8039v-10.0292c-.0118-.3127-.1294-.5779-.352-.7951-.2235-.2167-.4912-.325-.8039-.325h-.2353v-.1809h6.4871v.1809h-.2353c-.3127,0-.5814.1083-.8039.325-.2225.2172-.3402.4823-.352.7951v10.0292c0,.3132.1137.5814.3431.8039.2284.223.5.3343.8127.3343h.2353v.1809h-6.4871v-.1809h.2353ZM121.3316,125.3203h-1.9509c-2.2166,0-3.7656-.6024-4.644-1.8068-.3618-.4819-.8706-1.2559-1.5274-2.322s-.9843-1.6054-.9843-1.6176l4.3185-5.8906c.0843-.1206.1265-.2289.1265-.3255,0-.0961-.0186-.1809-.0539-.2529-.0853-.1809-.2529-.2711-.5069-.2711h-.1804v-.1627h4.3548v.1627h-.0716c-.8078,0-1.4706.2951-1.9882.8853l-3.0539,3.6867,4.2283,6.3607c.5902.8916,1.2353,1.349,1.9333,1.373v.1809Z" fill="url(#Earthtone_19_Radial-10)"/><path d="M129.0118,113.5568v10.4625c.0118.3132.1294.5779.3529.7951.2225.2167.4902.325.8039.325h.2353v.1809h-6.4881v-.1809h.2353c.3127,0,.5814-.1083.8039-.325.2235-.2172.3402-.476.3529-.7769v-10.4807h-1.7892c-.7225.0118-1.2892.2255-1.699.6412s-.6137.9848-.6137,1.7078v.1265l-.1814.0181v-3.7225c.1686.0721.4725.1446.9127.2167.4402.0725.8461.1083,1.2196.1083h8.0057c.3725,0,.7765-.0358,1.2108-.1083.4333-.0721.7402-.1446.9216-.2167v3.7225l-.1814-.0181v-.1265c0-.976-.3608-1.6627-1.0843-2.0603-.349-.1804-.7647-.277-1.2461-.2887h-1.7715Z" fill="url(#Earthtone_19_Radial-11)"/></svg>